<svg width="10" height="10" viewBox="0 0 10 10" fill="none" xmlns="http://www.w3.org/2000/svg">
<path d="M10 2.5V8.92857C10 9.52009 9.58008 10 9.0625 10H0.9375C0.419922 10 0 9.52009 0 8.92857V2.5C0 1.90848 0.419922 1.42857 0.9375 1.42857H2.65625L2.89648 0.694196C3.0332 0.276786 3.38281 0 3.77344 0H6.22461C6.61523 0 6.96484 0.276786 7.10156 0.694196L7.34375 1.42857H9.0625C9.58008 1.42857 10 1.90848 10 2.5ZM7.34375 5.71429C7.34375 4.23661 6.29297 3.03571 5 3.03571C3.70703 3.03571 2.65625 4.23661 2.65625 5.71429C2.65625 7.19196 3.70703 8.39286 5 8.39286C6.29297 8.39286 7.34375 7.19196 7.34375 5.71429ZM6.71875 5.71429C6.71875 6.79688 5.94727 7.67857 5 7.67857C4.05273 7.67857 3.28125 6.79688 3.28125 5.71429C3.28125 4.6317 4.05273 3.75 5 3.75C5.94727 3.75 6.71875 4.6317 6.71875 5.71429Z" fill="white"/>
</svg>
